<?xml version="1.0" encoding="UTF-8"?>
<svg width="1200" height="800" xmlns="http://www.w3.org/2000/svg">
  <rect width="1200" height="800" fill="#f8f9fa"/>

  <!-- All Edges (Gray) -->
  <g id="all-edges" stroke="#d1d5db" stroke-width="1" opacity="0.3">
    <line x1="50.00" y1="608.59" x2="83.33" y2="502.53"/>
    <line x1="50.00" y1="608.59" x2="116.67" y2="573.23"/>
    <line x1="50.00" y1="608.59" x2="127.78" y2="488.38"/>
    <line x1="50.00" y1="608.59" x2="138.89" y2="544.95"/>
    <line x1="50.00" y1="608.59" x2="261.11" y2="594.44"/>
    <line x1="61.11" y1="92.42" x2="105.56" y2="78.28"/>
    <line x1="61.11" y1="92.42" x2="227.78" y2="64.14"/>
    <line x1="72.22" y1="240.91" x2="94.44" y2="368.18"/>
    <line x1="72.22" y1="240.91" x2="150.00" y2="240.91"/>
    <line x1="72.22" y1="240.91" x2="161.11" y2="290.40"/>
    <line x1="72.22" y1="240.91" x2="172.22" y2="283.33"/>
    <line x1="72.22" y1="240.91" x2="216.67" y2="318.69"/>
    <line x1="72.22" y1="240.91" x2="238.89" y2="283.33"/>
    <line x1="72.22" y1="240.91" x2="250.00" y2="297.47"/>
    <line x1="72.22" y1="240.91" x2="283.33" y2="262.12"/>
    <line x1="83.33" y1="502.53" x2="94.44" y2="368.18"/>
    <line x1="83.33" y1="502.53" x2="116.67" y2="573.23"/>
    <line x1="83.33" y1="502.53" x2="127.78" y2="488.38"/>
    <line x1="83.33" y1="502.53" x2="138.89" y2="544.95"/>
    <line x1="83.33" y1="502.53" x2="183.33" y2="403.54"/>
    <line x1="83.33" y1="502.53" x2="194.44" y2="445.96"/>
    <line x1="83.33" y1="502.53" x2="205.56" y2="502.53"/>
    <line x1="94.44" y1="368.18" x2="127.78" y2="488.38"/>
    <line x1="94.44" y1="368.18" x2="150.00" y2="240.91"/>
    <line x1="94.44" y1="368.18" x2="161.11" y2="290.40"/>
    <line x1="94.44" y1="368.18" x2="172.22" y2="283.33"/>
    <line x1="94.44" y1="368.18" x2="183.33" y2="403.54"/>
    <line x1="94.44" y1="368.18" x2="194.44" y2="445.96"/>
    <line x1="94.44" y1="368.18" x2="216.67" y2="318.69"/>
    <line x1="94.44" y1="368.18" x2="238.89" y2="283.33"/>
    <line x1="94.44" y1="368.18" x2="250.00" y2="297.47"/>
    <line x1="105.56" y1="78.28" x2="227.78" y2="64.14"/>
    <line x1="105.56" y1="78.28" x2="272.22" y2="163.13"/>
    <line x1="116.67" y1="573.23" x2="127.78" y2="488.38"/>
    <line x1="116.67" y1="573.23" x2="138.89" y2="544.95"/>
    <line x1="116.67" y1="573.23" x2="194.44" y2="445.96"/>
    <line x1="116.67" y1="573.23" x2="205.56" y2="502.53"/>
    <line x1="116.67" y1="573.23" x2="261.11" y2="594.44"/>
    <line x1="116.67" y1="573.23" x2="294.44" y2="615.66"/>
    <line x1="116.67" y1="573.23" x2="305.56" y2="601.52"/>
    <line x1="127.78" y1="488.38" x2="138.89" y2="544.95"/>
    <line x1="127.78" y1="488.38" x2="183.33" y2="403.54"/>
    <line x1="127.78" y1="488.38" x2="194.44" y2="445.96"/>
    <line x1="127.78" y1="488.38" x2="205.56" y2="502.53"/>
    <line x1="127.78" y1="488.38" x2="261.11" y2="594.44"/>
    <line x1="127.78" y1="488.38" x2="327.78" y2="467.17"/>
    <line x1="127.78" y1="488.38" x2="338.89" y2="502.53"/>
    <line x1="138.89" y1="544.95" x2="194.44" y2="445.96"/>
    <line x1="138.89" y1="544.95" x2="205.56" y2="502.53"/>
    <line x1="138.89" y1="544.95" x2="261.11" y2="594.44"/>
    <line x1="138.89" y1="544.95" x2="294.44" y2="615.66"/>
    <line x1="138.89" y1="544.95" x2="305.56" y2="601.52"/>
    <line x1="138.89" y1="544.95" x2="338.89" y2="502.53"/>
    <line x1="150.00" y1="240.91" x2="161.11" y2="290.40"/>
    <line x1="150.00" y1="240.91" x2="172.22" y2="283.33"/>
    <line x1="150.00" y1="240.91" x2="216.67" y2="318.69"/>
    <line x1="150.00" y1="240.91" x2="238.89" y2="283.33"/>
    <line x1="150.00" y1="240.91" x2="250.00" y2="297.47"/>
    <line x1="150.00" y1="240.91" x2="272.22" y2="163.13"/>
    <line x1="150.00" y1="240.91" x2="283.33" y2="262.12"/>
    <line x1="150.00" y1="240.91" x2="316.67" y2="262.12"/>
    <line x1="161.11" y1="290.40" x2="172.22" y2="283.33"/>
    <line x1="161.11" y1="290.40" x2="183.33" y2="403.54"/>
    <line x1="161.11" y1="290.40" x2="216.67" y2="318.69"/>
    <line x1="161.11" y1="290.40" x2="238.89" y2="283.33"/>
    <line x1="161.11" y1="290.40" x2="250.00" y2="297.47"/>
    <line x1="161.11" y1="290.40" x2="283.33" y2="262.12"/>
    <line x1="161.11" y1="290.40" x2="316.67" y2="262.12"/>
    <line x1="172.22" y1="283.33" x2="183.33" y2="403.54"/>
    <line x1="172.22" y1="283.33" x2="216.67" y2="318.69"/>
    <line x1="172.22" y1="283.33" x2="238.89" y2="283.33"/>
    <line x1="172.22" y1="283.33" x2="250.00" y2="297.47"/>
    <line x1="172.22" y1="283.33" x2="272.22" y2="163.13"/>
    <line x1="172.22" y1="283.33" x2="283.33" y2="262.12"/>
    <line x1="172.22" y1="283.33" x2="316.67" y2="262.12"/>
    <line x1="183.33" y1="403.54" x2="194.44" y2="445.96"/>
    <line x1="183.33" y1="403.54" x2="205.56" y2="502.53"/>
    <line x1="183.33" y1="403.54" x2="216.67" y2="318.69"/>
    <line x1="183.33" y1="403.54" x2="238.89" y2="283.33"/>
    <line x1="183.33" y1="403.54" x2="250.00" y2="297.47"/>
    <line x1="183.33" y1="403.54" x2="327.78" y2="467.17"/>
    <line x1="183.33" y1="403.54" x2="338.89" y2="502.53"/>
    <line x1="183.33" y1="403.54" x2="372.22" y2="460.10"/>
    <line x1="194.44" y1="445.96" x2="205.56" y2="502.53"/>
    <line x1="194.44" y1="445.96" x2="216.67" y2="318.69"/>
    <line x1="194.44" y1="445.96" x2="327.78" y2="467.17"/>
    <line x1="194.44" y1="445.96" x2="338.89" y2="502.53"/>
    <line x1="194.44" y1="445.96" x2="372.22" y2="460.10"/>
    <line x1="205.56" y1="502.53" x2="261.11" y2="594.44"/>
    <line x1="205.56" y1="502.53" x2="294.44" y2="615.66"/>
    <line x1="205.56" y1="502.53" x2="305.56" y2="601.52"/>
    <line x1="205.56" y1="502.53" x2="327.78" y2="467.17"/>
    <line x1="205.56" y1="502.53" x2="338.89" y2="502.53"/>
    <line x1="205.56" y1="502.53" x2="372.22" y2="460.10"/>
    <line x1="216.67" y1="318.69" x2="238.89" y2="283.33"/>
    <line x1="216.67" y1="318.69" x2="250.00" y2="297.47"/>
    <line x1="216.67" y1="318.69" x2="283.33" y2="262.12"/>
    <line x1="216.67" y1="318.69" x2="316.67" y2="262.12"/>
    <line x1="216.67" y1="318.69" x2="383.33" y2="226.77"/>
    <line x1="216.67" y1="318.69" x2="416.67" y2="290.40"/>
    <line x1="227.78" y1="64.14" x2="272.22" y2="163.13"/>
    <line x1="227.78" y1="64.14" x2="350.00" y2="177.27"/>
    <line x1="238.89" y1="283.33" x2="250.00" y2="297.47"/>
    <line x1="238.89" y1="283.33" x2="272.22" y2="163.13"/>
    <line x1="238.89" y1="283.33" x2="283.33" y2="262.12"/>
    <line x1="238.89" y1="283.33" x2="316.67" y2="262.12"/>
    <line x1="238.89" y1="283.33" x2="350.00" y2="177.27"/>
    <line x1="238.89" y1="283.33" x2="383.33" y2="226.77"/>
    <line x1="238.89" y1="283.33" x2="416.67" y2="290.40"/>
    <line x1="250.00" y1="297.47" x2="272.22" y2="163.13"/>
    <line x1="250.00" y1="297.47" x2="283.33" y2="262.12"/>
    <line x1="250.00" y1="297.47" x2="316.67" y2="262.12"/>
    <line x1="250.00" y1="297.47" x2="350.00" y2="177.27"/>
    <line x1="250.00" y1="297.47" x2="383.33" y2="226.77"/>
    <line x1="250.00" y1="297.47" x2="416.67" y2="290.40"/>
    <line x1="250.00" y1="297.47" x2="461.11" y2="269.19"/>
    <line x1="261.11" y1="594.44" x2="294.44" y2="615.66"/>
    <line x1="261.11" y1="594.44" x2="305.56" y2="601.52"/>
    <line x1="261.11" y1="594.44" x2="327.78" y2="467.17"/>
    <line x1="261.11" y1="594.44" x2="338.89" y2="502.53"/>
    <line x1="261.11" y1="594.44" x2="361.11" y2="643.94"/>
    <line x1="261.11" y1="594.44" x2="394.44" y2="665.15"/>
    <line x1="261.11" y1="594.44" x2="427.78" y2="530.81"/>
    <line x1="261.11" y1="594.44" x2="438.89" y2="665.15"/>
    <line x1="272.22" y1="163.13" x2="283.33" y2="262.12"/>
    <line x1="272.22" y1="163.13" x2="316.67" y2="262.12"/>
    <line x1="272.22" y1="163.13" x2="350.00" y2="177.27"/>
    <line x1="272.22" y1="163.13" x2="383.33" y2="226.77"/>
    <line x1="283.33" y1="262.12" x2="316.67" y2="262.12"/>
    <line x1="283.33" y1="262.12" x2="350.00" y2="177.27"/>
    <line x1="283.33" y1="262.12" x2="383.33" y2="226.77"/>
    <line x1="283.33" y1="262.12" x2="416.67" y2="290.40"/>
    <line x1="283.33" y1="262.12" x2="461.11" y2="269.19"/>
    <line x1="294.44" y1="615.66" x2="305.56" y2="601.52"/>
    <line x1="294.44" y1="615.66" x2="338.89" y2="502.53"/>
    <line x1="294.44" y1="615.66" x2="361.11" y2="643.94"/>
    <line x1="294.44" y1="615.66" x2="394.44" y2="665.15"/>
    <line x1="294.44" y1="615.66" x2="405.56" y2="728.79"/>
    <line x1="294.44" y1="615.66" x2="427.78" y2="530.81"/>
    <line x1="294.44" y1="615.66" x2="438.89" y2="665.15"/>
    <line x1="294.44" y1="615.66" x2="505.56" y2="658.08"/>
    <line x1="305.56" y1="601.52" x2="327.78" y2="467.17"/>
    <line x1="305.56" y1="601.52" x2="338.89" y2="502.53"/>
    <line x1="305.56" y1="601.52" x2="361.11" y2="643.94"/>
    <line x1="305.56" y1="601.52" x2="394.44" y2="665.15"/>
    <line x1="305.56" y1="601.52" x2="427.78" y2="530.81"/>
    <line x1="305.56" y1="601.52" x2="438.89" y2="665.15"/>
    <line x1="305.56" y1="601.52" x2="505.56" y2="658.08"/>
    <line x1="316.67" y1="262.12" x2="350.00" y2="177.27"/>
    <line x1="316.67" y1="262.12" x2="383.33" y2="226.77"/>
    <line x1="316.67" y1="262.12" x2="416.67" y2="290.40"/>
    <line x1="316.67" y1="262.12" x2="461.11" y2="269.19"/>
    <line x1="316.67" y1="262.12" x2="516.67" y2="255.05"/>
    <line x1="327.78" y1="467.17" x2="338.89" y2="502.53"/>
    <line x1="327.78" y1="467.17" x2="372.22" y2="460.10"/>
    <line x1="327.78" y1="467.17" x2="427.78" y2="530.81"/>
    <line x1="327.78" y1="467.17" x2="450.00" y2="410.61"/>
    <line x1="327.78" y1="467.17" x2="472.22" y2="460.10"/>
    <line x1="327.78" y1="467.17" x2="483.33" y2="467.17"/>
    <line x1="338.89" y1="502.53" x2="372.22" y2="460.10"/>
    <line x1="338.89" y1="502.53" x2="427.78" y2="530.81"/>
    <line x1="338.89" y1="502.53" x2="450.00" y2="410.61"/>
    <line x1="338.89" y1="502.53" x2="472.22" y2="460.10"/>
    <line x1="338.89" y1="502.53" x2="483.33" y2="467.17"/>
    <line x1="338.89" y1="502.53" x2="527.78" y2="537.88"/>
    <line x1="338.89" y1="502.53" x2="550.00" y2="502.53"/>
    <line x1="350.00" y1="177.27" x2="383.33" y2="226.77"/>
    <line x1="350.00" y1="177.27" x2="416.67" y2="290.40"/>
    <line x1="350.00" y1="177.27" x2="461.11" y2="269.19"/>
    <line x1="350.00" y1="177.27" x2="516.67" y2="255.05"/>
    <line x1="350.00" y1="177.27" x2="561.11" y2="156.06"/>
    <line x1="361.11" y1="643.94" x2="394.44" y2="665.15"/>
    <line x1="361.11" y1="643.94" x2="405.56" y2="728.79"/>
    <line x1="361.11" y1="643.94" x2="427.78" y2="530.81"/>
    <line x1="361.11" y1="643.94" x2="438.89" y2="665.15"/>
    <line x1="361.11" y1="643.94" x2="505.56" y2="658.08"/>
    <line x1="361.11" y1="643.94" x2="538.89" y2="608.59"/>
    <line x1="372.22" y1="460.10" x2="427.78" y2="530.81"/>
    <line x1="372.22" y1="460.10" x2="450.00" y2="410.61"/>
    <line x1="372.22" y1="460.10" x2="472.22" y2="460.10"/>
    <line x1="372.22" y1="460.10" x2="483.33" y2="467.17"/>
    <line x1="372.22" y1="460.10" x2="527.78" y2="537.88"/>
    <line x1="372.22" y1="460.10" x2="550.00" y2="502.53"/>
    <line x1="383.33" y1="226.77" x2="416.67" y2="290.40"/>
    <line x1="383.33" y1="226.77" x2="461.11" y2="269.19"/>
    <line x1="383.33" y1="226.77" x2="516.67" y2="255.05"/>
    <line x1="383.33" y1="226.77" x2="561.11" y2="156.06"/>
    <line x1="394.44" y1="665.15" x2="405.56" y2="728.79"/>
    <line x1="394.44" y1="665.15" x2="427.78" y2="530.81"/>
    <line x1="394.44" y1="665.15" x2="438.89" y2="665.15"/>
    <line x1="394.44" y1="665.15" x2="505.56" y2="658.08"/>
    <line x1="394.44" y1="665.15" x2="538.89" y2="608.59"/>
    <line x1="405.56" y1="728.79" x2="438.89" y2="665.15"/>
    <line x1="405.56" y1="728.79" x2="505.56" y2="658.08"/>
    <line x1="405.56" y1="728.79" x2="583.33" y2="742.93"/>
    <line x1="416.67" y1="290.40" x2="450.00" y2="410.61"/>
    <line x1="416.67" y1="290.40" x2="461.11" y2="269.19"/>
    <line x1="416.67" y1="290.40" x2="516.67" y2="255.05"/>
    <line x1="416.67" y1="290.40" x2="605.56" y2="318.69"/>
    <line x1="427.78" y1="530.81" x2="438.89" y2="665.15"/>
    <line x1="427.78" y1="530.81" x2="450.00" y2="410.61"/>
    <line x1="427.78" y1="530.81" x2="472.22" y2="460.10"/>
    <line x1="427.78" y1="530.81" x2="483.33" y2="467.17"/>
    <line x1="427.78" y1="530.81" x2="505.56" y2="658.08"/>
    <line x1="427.78" y1="530.81" x2="527.78" y2="537.88"/>
    <line x1="427.78" y1="530.81" x2="538.89" y2="608.59"/>
    <line x1="427.78" y1="530.81" x2="550.00" y2="502.53"/>
    <line x1="427.78" y1="530.81" x2="627.78" y2="580.30"/>
    <line x1="427.78" y1="530.81" x2="638.89" y2="559.09"/>
    <line x1="438.89" y1="665.15" x2="505.56" y2="658.08"/>
    <line x1="438.89" y1="665.15" x2="527.78" y2="537.88"/>
    <line x1="438.89" y1="665.15" x2="538.89" y2="608.59"/>
    <line x1="438.89" y1="665.15" x2="583.33" y2="742.93"/>
    <line x1="450.00" y1="410.61" x2="472.22" y2="460.10"/>
    <line x1="450.00" y1="410.61" x2="483.33" y2="467.17"/>
    <line x1="450.00" y1="410.61" x2="527.78" y2="537.88"/>
    <line x1="450.00" y1="410.61" x2="550.00" y2="502.53"/>
    <line x1="450.00" y1="410.61" x2="605.56" y2="318.69"/>
    <line x1="461.11" y1="269.19" x2="516.67" y2="255.05"/>
    <line x1="461.11" y1="269.19" x2="561.11" y2="156.06"/>
    <line x1="461.11" y1="269.19" x2="605.56" y2="318.69"/>
    <line x1="472.22" y1="460.10" x2="483.33" y2="467.17"/>
    <line x1="472.22" y1="460.10" x2="527.78" y2="537.88"/>
    <line x1="472.22" y1="460.10" x2="550.00" y2="502.53"/>
    <line x1="472.22" y1="460.10" x2="683.33" y2="445.96"/>
    <line x1="483.33" y1="467.17" x2="527.78" y2="537.88"/>
    <line x1="483.33" y1="467.17" x2="550.00" y2="502.53"/>
    <line x1="483.33" y1="467.17" x2="638.89" y2="559.09"/>
    <line x1="483.33" y1="467.17" x2="683.33" y2="445.96"/>
    <line x1="494.44" y1="50.00" x2="561.11" y2="156.06"/>
    <line x1="494.44" y1="50.00" x2="572.22" y2="71.21"/>
    <line x1="494.44" y1="50.00" x2="594.44" y2="92.42"/>
    <line x1="494.44" y1="50.00" x2="616.67" y2="163.13"/>
    <line x1="494.44" y1="50.00" x2="650.00" y2="92.42"/>
    <line x1="494.44" y1="50.00" x2="661.11" y2="141.92"/>
    <line x1="494.44" y1="50.00" x2="672.22" y2="71.21"/>
    <line x1="505.56" y1="658.08" x2="527.78" y2="537.88"/>
    <line x1="505.56" y1="658.08" x2="538.89" y2="608.59"/>
    <line x1="505.56" y1="658.08" x2="583.33" y2="742.93"/>
    <line x1="505.56" y1="658.08" x2="627.78" y2="580.30"/>
    <line x1="505.56" y1="658.08" x2="638.89" y2="559.09"/>
    <line x1="505.56" y1="658.08" x2="694.44" y2="679.29"/>
    <line x1="516.67" y1="255.05" x2="561.11" y2="156.06"/>
    <line x1="516.67" y1="255.05" x2="605.56" y2="318.69"/>
    <line x1="516.67" y1="255.05" x2="616.67" y2="163.13"/>
    <line x1="527.78" y1="537.88" x2="538.89" y2="608.59"/>
    <line x1="527.78" y1="537.88" x2="550.00" y2="502.53"/>
    <line x1="527.78" y1="537.88" x2="627.78" y2="580.30"/>
    <line x1="527.78" y1="537.88" x2="638.89" y2="559.09"/>
    <line x1="527.78" y1="537.88" x2="683.33" y2="445.96"/>
    <line x1="527.78" y1="537.88" x2="716.67" y2="559.09"/>
    <line x1="538.89" y1="608.59" x2="550.00" y2="502.53"/>
    <line x1="538.89" y1="608.59" x2="583.33" y2="742.93"/>
    <line x1="538.89" y1="608.59" x2="627.78" y2="580.30"/>
    <line x1="538.89" y1="608.59" x2="638.89" y2="559.09"/>
    <line x1="538.89" y1="608.59" x2="694.44" y2="679.29"/>
    <line x1="538.89" y1="608.59" x2="716.67" y2="559.09"/>
    <line x1="550.00" y1="502.53" x2="627.78" y2="580.30"/>
    <line x1="550.00" y1="502.53" x2="638.89" y2="559.09"/>
    <line x1="550.00" y1="502.53" x2="683.33" y2="445.96"/>
    <line x1="550.00" y1="502.53" x2="716.67" y2="559.09"/>
    <line x1="550.00" y1="502.53" x2="738.89" y2="467.17"/>
    <line x1="550.00" y1="502.53" x2="750.00" y2="502.53"/>
    <line x1="561.11" y1="156.06" x2="572.22" y2="71.21"/>
    <line x1="561.11" y1="156.06" x2="594.44" y2="92.42"/>
    <line x1="561.11" y1="156.06" x2="616.67" y2="163.13"/>
    <line x1="561.11" y1="156.06" x2="650.00" y2="92.42"/>
    <line x1="561.11" y1="156.06" x2="661.11" y2="141.92"/>
    <line x1="561.11" y1="156.06" x2="672.22" y2="71.21"/>
    <line x1="561.11" y1="156.06" x2="727.78" y2="134.85"/>
    <line x1="561.11" y1="156.06" x2="761.11" y2="163.13"/>
    <line x1="572.22" y1="71.21" x2="594.44" y2="92.42"/>
    <line x1="572.22" y1="71.21" x2="616.67" y2="163.13"/>
    <line x1="572.22" y1="71.21" x2="650.00" y2="92.42"/>
    <line x1="572.22" y1="71.21" x2="661.11" y2="141.92"/>
    <line x1="572.22" y1="71.21" x2="672.22" y2="71.21"/>
    <line x1="572.22" y1="71.21" x2="727.78" y2="134.85"/>
    <line x1="583.33" y1="742.93" x2="694.44" y2="679.29"/>
    <line x1="594.44" y1="92.42" x2="616.67" y2="163.13"/>
    <line x1="594.44" y1="92.42" x2="650.00" y2="92.42"/>
    <line x1="594.44" y1="92.42" x2="661.11" y2="141.92"/>
    <line x1="594.44" y1="92.42" x2="672.22" y2="71.21"/>
    <line x1="594.44" y1="92.42" x2="727.78" y2="134.85"/>
    <line x1="594.44" y1="92.42" x2="761.11" y2="163.13"/>
    <line x1="594.44" y1="92.42" x2="794.44" y2="120.71"/>
    <line x1="605.56" y1="318.69" x2="683.33" y2="445.96"/>
    <line x1="605.56" y1="318.69" x2="705.56" y2="389.39"/>
    <line x1="616.67" y1="163.13" x2="650.00" y2="92.42"/>
    <line x1="616.67" y1="163.13" x2="661.11" y2="141.92"/>
    <line x1="616.67" y1="163.13" x2="672.22" y2="71.21"/>
    <line x1="616.67" y1="163.13" x2="727.78" y2="134.85"/>
    <line x1="616.67" y1="163.13" x2="761.11" y2="163.13"/>
    <line x1="616.67" y1="163.13" x2="794.44" y2="120.71"/>
    <line x1="616.67" y1="163.13" x2="816.67" y2="191.41"/>
    <line x1="627.78" y1="580.30" x2="638.89" y2="559.09"/>
    <line x1="627.78" y1="580.30" x2="683.33" y2="445.96"/>
    <line x1="627.78" y1="580.30" x2="694.44" y2="679.29"/>
    <line x1="627.78" y1="580.30" x2="716.67" y2="559.09"/>
    <line x1="627.78" y1="580.30" x2="738.89" y2="467.17"/>
    <line x1="627.78" y1="580.30" x2="750.00" y2="502.53"/>
    <line x1="627.78" y1="580.30" x2="783.33" y2="643.94"/>
    <line x1="627.78" y1="580.30" x2="827.78" y2="573.23"/>
    <line x1="638.89" y1="559.09" x2="683.33" y2="445.96"/>
    <line x1="638.89" y1="559.09" x2="694.44" y2="679.29"/>
    <line x1="638.89" y1="559.09" x2="716.67" y2="559.09"/>
    <line x1="638.89" y1="559.09" x2="738.89" y2="467.17"/>
    <line x1="638.89" y1="559.09" x2="750.00" y2="502.53"/>
    <line x1="638.89" y1="559.09" x2="783.33" y2="643.94"/>
    <line x1="638.89" y1="559.09" x2="827.78" y2="573.23"/>
    <line x1="650.00" y1="92.42" x2="661.11" y2="141.92"/>
    <line x1="650.00" y1="92.42" x2="672.22" y2="71.21"/>
    <line x1="650.00" y1="92.42" x2="727.78" y2="134.85"/>
    <line x1="650.00" y1="92.42" x2="761.11" y2="163.13"/>
    <line x1="650.00" y1="92.42" x2="794.44" y2="120.71"/>
    <line x1="650.00" y1="92.42" x2="838.89" y2="156.06"/>
    <line x1="661.11" y1="141.92" x2="672.22" y2="71.21"/>
    <line x1="661.11" y1="141.92" x2="727.78" y2="134.85"/>
    <line x1="661.11" y1="141.92" x2="761.11" y2="163.13"/>
    <line x1="661.11" y1="141.92" x2="794.44" y2="120.71"/>
    <line x1="661.11" y1="141.92" x2="805.56" y2="247.98"/>
    <line x1="661.11" y1="141.92" x2="816.67" y2="191.41"/>
    <line x1="661.11" y1="141.92" x2="838.89" y2="156.06"/>
    <line x1="672.22" y1="71.21" x2="727.78" y2="134.85"/>
    <line x1="672.22" y1="71.21" x2="761.11" y2="163.13"/>
    <line x1="672.22" y1="71.21" x2="794.44" y2="120.71"/>
    <line x1="672.22" y1="71.21" x2="838.89" y2="156.06"/>
    <line x1="683.33" y1="445.96" x2="705.56" y2="389.39"/>
    <line x1="683.33" y1="445.96" x2="716.67" y2="559.09"/>
    <line x1="683.33" y1="445.96" x2="738.89" y2="467.17"/>
    <line x1="683.33" y1="445.96" x2="750.00" y2="502.53"/>
    <line x1="683.33" y1="445.96" x2="772.22" y2="438.89"/>
    <line x1="683.33" y1="445.96" x2="850.00" y2="445.96"/>
    <line x1="683.33" y1="445.96" x2="861.11" y2="403.54"/>
    <line x1="694.44" y1="679.29" x2="716.67" y2="559.09"/>
    <line x1="694.44" y1="679.29" x2="783.33" y2="643.94"/>
    <line x1="694.44" y1="679.29" x2="827.78" y2="573.23"/>
    <line x1="694.44" y1="679.29" x2="883.33" y2="750.00"/>
    <line x1="705.56" y1="389.39" x2="738.89" y2="467.17"/>
    <line x1="705.56" y1="389.39" x2="750.00" y2="502.53"/>
    <line x1="705.56" y1="389.39" x2="772.22" y2="438.89"/>
    <line x1="705.56" y1="389.39" x2="850.00" y2="445.96"/>
    <line x1="705.56" y1="389.39" x2="861.11" y2="403.54"/>
    <line x1="716.67" y1="559.09" x2="738.89" y2="467.17"/>
    <line x1="716.67" y1="559.09" x2="750.00" y2="502.53"/>
    <line x1="716.67" y1="559.09" x2="772.22" y2="438.89"/>
    <line x1="716.67" y1="559.09" x2="783.33" y2="643.94"/>
    <line x1="716.67" y1="559.09" x2="827.78" y2="573.23"/>
    <line x1="716.67" y1="559.09" x2="850.00" y2="445.96"/>
    <line x1="727.78" y1="134.85" x2="761.11" y2="163.13"/>
    <line x1="727.78" y1="134.85" x2="794.44" y2="120.71"/>
    <line x1="727.78" y1="134.85" x2="805.56" y2="247.98"/>
    <line x1="727.78" y1="134.85" x2="816.67" y2="191.41"/>
    <line x1="727.78" y1="134.85" x2="838.89" y2="156.06"/>
    <line x1="727.78" y1="134.85" x2="894.44" y2="127.78"/>
    <line x1="727.78" y1="134.85" x2="905.56" y2="184.34"/>
    <line x1="738.89" y1="467.17" x2="750.00" y2="502.53"/>
    <line x1="738.89" y1="467.17" x2="772.22" y2="438.89"/>
    <line x1="738.89" y1="467.17" x2="827.78" y2="573.23"/>
    <line x1="738.89" y1="467.17" x2="850.00" y2="445.96"/>
    <line x1="738.89" y1="467.17" x2="861.11" y2="403.54"/>
    <line x1="750.00" y1="502.53" x2="772.22" y2="438.89"/>
    <line x1="750.00" y1="502.53" x2="827.78" y2="573.23"/>
    <line x1="750.00" y1="502.53" x2="850.00" y2="445.96"/>
    <line x1="750.00" y1="502.53" x2="861.11" y2="403.54"/>
    <line x1="750.00" y1="502.53" x2="961.11" y2="460.10"/>
    <line x1="761.11" y1="163.13" x2="794.44" y2="120.71"/>
    <line x1="761.11" y1="163.13" x2="805.56" y2="247.98"/>
    <line x1="761.11" y1="163.13" x2="816.67" y2="191.41"/>
    <line x1="761.11" y1="163.13" x2="838.89" y2="156.06"/>
    <line x1="761.11" y1="163.13" x2="872.22" y2="283.33"/>
    <line x1="761.11" y1="163.13" x2="894.44" y2="127.78"/>
    <line x1="761.11" y1="163.13" x2="905.56" y2="184.34"/>
    <line x1="761.11" y1="163.13" x2="938.89" y2="226.77"/>
    <line x1="772.22" y1="438.89" x2="827.78" y2="573.23"/>
    <line x1="772.22" y1="438.89" x2="850.00" y2="445.96"/>
    <line x1="772.22" y1="438.89" x2="861.11" y2="403.54"/>
    <line x1="772.22" y1="438.89" x2="961.11" y2="460.10"/>
    <line x1="772.22" y1="438.89" x2="972.22" y2="431.82"/>
    <line x1="783.33" y1="643.94" x2="827.78" y2="573.23"/>
    <line x1="783.33" y1="643.94" x2="883.33" y2="750.00"/>
    <line x1="783.33" y1="643.94" x2="916.67" y2="721.72"/>
    <line x1="783.33" y1="643.94" x2="927.78" y2="728.79"/>
    <line x1="783.33" y1="643.94" x2="950.00" y2="679.29"/>
    <line x1="794.44" y1="120.71" x2="805.56" y2="247.98"/>
    <line x1="794.44" y1="120.71" x2="816.67" y2="191.41"/>
    <line x1="794.44" y1="120.71" x2="838.89" y2="156.06"/>
    <line x1="794.44" y1="120.71" x2="894.44" y2="127.78"/>
    <line x1="794.44" y1="120.71" x2="905.56" y2="184.34"/>
    <line x1="794.44" y1="120.71" x2="938.89" y2="226.77"/>
    <line x1="805.56" y1="247.98" x2="816.67" y2="191.41"/>
    <line x1="805.56" y1="247.98" x2="838.89" y2="156.06"/>
    <line x1="805.56" y1="247.98" x2="872.22" y2="283.33"/>
    <line x1="805.56" y1="247.98" x2="894.44" y2="127.78"/>
    <line x1="805.56" y1="247.98" x2="905.56" y2="184.34"/>
    <line x1="805.56" y1="247.98" x2="938.89" y2="226.77"/>
    <line x1="805.56" y1="247.98" x2="983.33" y2="219.70"/>
    <line x1="816.67" y1="191.41" x2="838.89" y2="156.06"/>
    <line x1="816.67" y1="191.41" x2="872.22" y2="283.33"/>
    <line x1="816.67" y1="191.41" x2="894.44" y2="127.78"/>
    <line x1="816.67" y1="191.41" x2="905.56" y2="184.34"/>
    <line x1="816.67" y1="191.41" x2="938.89" y2="226.77"/>
    <line x1="816.67" y1="191.41" x2="983.33" y2="219.70"/>
    <line x1="827.78" y1="573.23" x2="850.00" y2="445.96"/>
    <line x1="827.78" y1="573.23" x2="950.00" y2="679.29"/>
    <line x1="827.78" y1="573.23" x2="961.11" y2="460.10"/>
    <line x1="827.78" y1="573.23" x2="994.44" y2="509.60"/>
    <line x1="838.89" y1="156.06" x2="872.22" y2="283.33"/>
    <line x1="838.89" y1="156.06" x2="894.44" y2="127.78"/>
    <line x1="838.89" y1="156.06" x2="905.56" y2="184.34"/>
    <line x1="838.89" y1="156.06" x2="938.89" y2="226.77"/>
    <line x1="838.89" y1="156.06" x2="983.33" y2="219.70"/>
    <line x1="850.00" y1="445.96" x2="861.11" y2="403.54"/>
    <line x1="850.00" y1="445.96" x2="961.11" y2="460.10"/>
    <line x1="850.00" y1="445.96" x2="972.22" y2="431.82"/>
    <line x1="850.00" y1="445.96" x2="994.44" y2="509.60"/>
    <line x1="850.00" y1="445.96" x2="1005.56" y2="460.10"/>
    <line x1="850.00" y1="445.96" x2="1016.67" y2="438.89"/>
    <line x1="850.00" y1="445.96" x2="1027.78" y2="396.46"/>
    <line x1="850.00" y1="445.96" x2="1050.00" y2="460.10"/>
    <line x1="850.00" y1="445.96" x2="1061.11" y2="488.38"/>
    <line x1="861.11" y1="403.54" x2="872.22" y2="283.33"/>
    <line x1="861.11" y1="403.54" x2="961.11" y2="460.10"/>
    <line x1="861.11" y1="403.54" x2="972.22" y2="431.82"/>
    <line x1="861.11" y1="403.54" x2="994.44" y2="509.60"/>
    <line x1="861.11" y1="403.54" x2="1005.56" y2="460.10"/>
    <line x1="861.11" y1="403.54" x2="1016.67" y2="438.89"/>
    <line x1="861.11" y1="403.54" x2="1027.78" y2="396.46"/>
    <line x1="861.11" y1="403.54" x2="1050.00" y2="460.10"/>
    <line x1="872.22" y1="283.33" x2="905.56" y2="184.34"/>
    <line x1="872.22" y1="283.33" x2="938.89" y2="226.77"/>
    <line x1="872.22" y1="283.33" x2="983.33" y2="219.70"/>
    <line x1="883.33" y1="750.00" x2="916.67" y2="721.72"/>
    <line x1="883.33" y1="750.00" x2="927.78" y2="728.79"/>
    <line x1="883.33" y1="750.00" x2="950.00" y2="679.29"/>
    <line x1="883.33" y1="750.00" x2="1083.33" y2="707.58"/>
    <line x1="894.44" y1="127.78" x2="905.56" y2="184.34"/>
    <line x1="894.44" y1="127.78" x2="938.89" y2="226.77"/>
    <line x1="894.44" y1="127.78" x2="983.33" y2="219.70"/>
    <line x1="894.44" y1="127.78" x2="1038.89" y2="50.00"/>
    <line x1="894.44" y1="127.78" x2="1094.44" y2="85.35"/>
    <line x1="894.44" y1="127.78" x2="1105.56" y2="85.35"/>
    <line x1="905.56" y1="184.34" x2="938.89" y2="226.77"/>
    <line x1="905.56" y1="184.34" x2="983.33" y2="219.70"/>
    <line x1="905.56" y1="184.34" x2="1116.67" y2="212.63"/>
    <line x1="916.67" y1="721.72" x2="927.78" y2="728.79"/>
    <line x1="916.67" y1="721.72" x2="950.00" y2="679.29"/>
    <line x1="916.67" y1="721.72" x2="1083.33" y2="707.58"/>
    <line x1="927.78" y1="728.79" x2="950.00" y2="679.29"/>
    <line x1="927.78" y1="728.79" x2="1083.33" y2="707.58"/>
    <line x1="938.89" y1="226.77" x2="983.33" y2="219.70"/>
    <line x1="938.89" y1="226.77" x2="1116.67" y2="212.63"/>
    <line x1="950.00" y1="679.29" x2="1072.22" y2="566.16"/>
    <line x1="950.00" y1="679.29" x2="1083.33" y2="707.58"/>
    <line x1="961.11" y1="460.10" x2="972.22" y2="431.82"/>
    <line x1="961.11" y1="460.10" x2="994.44" y2="509.60"/>
    <line x1="961.11" y1="460.10" x2="1005.56" y2="460.10"/>
    <line x1="961.11" y1="460.10" x2="1016.67" y2="438.89"/>
    <line x1="961.11" y1="460.10" x2="1027.78" y2="396.46"/>
    <line x1="961.11" y1="460.10" x2="1050.00" y2="460.10"/>
    <line x1="961.11" y1="460.10" x2="1061.11" y2="488.38"/>
    <line x1="961.11" y1="460.10" x2="1072.22" y2="566.16"/>
    <line x1="961.11" y1="460.10" x2="1127.78" y2="410.61"/>
    <line x1="961.11" y1="460.10" x2="1138.89" y2="523.74"/>
    <line x1="961.11" y1="460.10" x2="1150.00" y2="453.03"/>
    <line x1="972.22" y1="431.82" x2="994.44" y2="509.60"/>
    <line x1="972.22" y1="431.82" x2="1005.56" y2="460.10"/>
    <line x1="972.22" y1="431.82" x2="1016.67" y2="438.89"/>
    <line x1="972.22" y1="431.82" x2="1027.78" y2="396.46"/>
    <line x1="972.22" y1="431.82" x2="1050.00" y2="460.10"/>
    <line x1="972.22" y1="431.82" x2="1061.11" y2="488.38"/>
    <line x1="972.22" y1="431.82" x2="1127.78" y2="410.61"/>
    <line x1="972.22" y1="431.82" x2="1138.89" y2="523.74"/>
    <line x1="972.22" y1="431.82" x2="1150.00" y2="453.03"/>
    <line x1="983.33" y1="219.70" x2="1116.67" y2="212.63"/>
    <line x1="994.44" y1="509.60" x2="1005.56" y2="460.10"/>
    <line x1="994.44" y1="509.60" x2="1016.67" y2="438.89"/>
    <line x1="994.44" y1="509.60" x2="1027.78" y2="396.46"/>
    <line x1="994.44" y1="509.60" x2="1050.00" y2="460.10"/>
    <line x1="994.44" y1="509.60" x2="1061.11" y2="488.38"/>
    <line x1="994.44" y1="509.60" x2="1072.22" y2="566.16"/>
    <line x1="994.44" y1="509.60" x2="1127.78" y2="410.61"/>
    <line x1="994.44" y1="509.60" x2="1138.89" y2="523.74"/>
    <line x1="994.44" y1="509.60" x2="1150.00" y2="453.03"/>
    <line x1="1005.56" y1="460.10" x2="1016.67" y2="438.89"/>
    <line x1="1005.56" y1="460.10" x2="1027.78" y2="396.46"/>
    <line x1="1005.56" y1="460.10" x2="1050.00" y2="460.10"/>
    <line x1="1005.56" y1="460.10" x2="1061.11" y2="488.38"/>
    <line x1="1005.56" y1="460.10" x2="1072.22" y2="566.16"/>
    <line x1="1005.56" y1="460.10" x2="1127.78" y2="410.61"/>
    <line x1="1005.56" y1="460.10" x2="1138.89" y2="523.74"/>
    <line x1="1005.56" y1="460.10" x2="1150.00" y2="453.03"/>
    <line x1="1016.67" y1="438.89" x2="1027.78" y2="396.46"/>
    <line x1="1016.67" y1="438.89" x2="1050.00" y2="460.10"/>
    <line x1="1016.67" y1="438.89" x2="1061.11" y2="488.38"/>
    <line x1="1016.67" y1="438.89" x2="1072.22" y2="566.16"/>
    <line x1="1016.67" y1="438.89" x2="1127.78" y2="410.61"/>
    <line x1="1016.67" y1="438.89" x2="1138.89" y2="523.74"/>
    <line x1="1016.67" y1="438.89" x2="1150.00" y2="453.03"/>
    <line x1="1027.78" y1="396.46" x2="1050.00" y2="460.10"/>
    <line x1="1027.78" y1="396.46" x2="1061.11" y2="488.38"/>
    <line x1="1027.78" y1="396.46" x2="1127.78" y2="410.61"/>
    <line x1="1027.78" y1="396.46" x2="1150.00" y2="453.03"/>
    <line x1="1038.89" y1="50.00" x2="1094.44" y2="85.35"/>
    <line x1="1038.89" y1="50.00" x2="1105.56" y2="85.35"/>
    <line x1="1050.00" y1="460.10" x2="1061.11" y2="488.38"/>
    <line x1="1050.00" y1="460.10" x2="1072.22" y2="566.16"/>
    <line x1="1050.00" y1="460.10" x2="1127.78" y2="410.61"/>
    <line x1="1050.00" y1="460.10" x2="1138.89" y2="523.74"/>
    <line x1="1050.00" y1="460.10" x2="1150.00" y2="453.03"/>
    <line x1="1061.11" y1="488.38" x2="1072.22" y2="566.16"/>
    <line x1="1061.11" y1="488.38" x2="1127.78" y2="410.61"/>
    <line x1="1061.11" y1="488.38" x2="1138.89" y2="523.74"/>
    <line x1="1061.11" y1="488.38" x2="1150.00" y2="453.03"/>
    <line x1="1072.22" y1="566.16" x2="1138.89" y2="523.74"/>
    <line x1="1072.22" y1="566.16" x2="1150.00" y2="453.03"/>
    <line x1="1094.44" y1="85.35" x2="1105.56" y2="85.35"/>
    <line x1="1094.44" y1="85.35" x2="1116.67" y2="212.63"/>
    <line x1="1105.56" y1="85.35" x2="1116.67" y2="212.63"/>
    <line x1="1127.78" y1="410.61" x2="1138.89" y2="523.74"/>
    <line x1="1127.78" y1="410.61" x2="1150.00" y2="453.03"/>
    <line x1="1138.89" y1="523.74" x2="1150.00" y2="453.03"/>
  </g>

  <!-- MST Edges (Blue) -->
  <g id="mst-edges" stroke="#2563eb" stroke-width="2.5" opacity="0.8">
    <line x1="1094.44" y1="85.35" x2="1105.56" y2="85.35"/>
    <line x1="161.11" y1="290.40" x2="172.22" y2="283.33"/>
    <line x1="472.22" y1="460.10" x2="483.33" y2="467.17"/>
    <line x1="916.67" y1="721.72" x2="927.78" y2="728.79"/>
    <line x1="238.89" y1="283.33" x2="250.00" y2="297.47"/>
    <line x1="294.44" y1="615.66" x2="305.56" y2="601.52"/>
    <line x1="283.33" y1="262.12" x2="316.67" y2="262.12"/>
    <line x1="627.78" y1="580.30" x2="638.89" y2="559.09"/>
    <line x1="1005.56" y1="460.10" x2="1016.67" y2="438.89"/>
    <line x1="572.22" y1="71.21" x2="594.44" y2="92.42"/>
    <line x1="650.00" y1="92.42" x2="672.22" y2="71.21"/>
    <line x1="394.44" y1="665.15" x2="438.89" y2="665.15"/>
    <line x1="961.11" y1="460.10" x2="1005.56" y2="460.10"/>
    <line x1="1005.56" y1="460.10" x2="1050.00" y2="460.10"/>
    <line x1="261.11" y1="594.44" x2="305.56" y2="601.52"/>
    <line x1="327.78" y1="467.17" x2="372.22" y2="460.10"/>
    <line x1="938.89" y1="226.77" x2="983.33" y2="219.70"/>
    <line x1="961.11" y1="460.10" x2="972.22" y2="431.82"/>
    <line x1="1050.00" y1="460.10" x2="1061.11" y2="488.38"/>
    <line x1="216.67" y1="318.69" x2="250.00" y2="297.47"/>
    <line x1="361.11" y1="643.94" x2="394.44" y2="665.15"/>
    <line x1="61.11" y1="92.42" x2="105.56" y2="78.28"/>
    <line x1="83.33" y1="502.53" x2="127.78" y2="488.38"/>
    <line x1="116.67" y1="573.23" x2="138.89" y2="544.95"/>
    <line x1="238.89" y1="283.33" x2="283.33" y2="262.12"/>
    <line x1="416.67" y1="290.40" x2="461.11" y2="269.19"/>
    <line x1="594.44" y1="92.42" x2="650.00" y2="92.42"/>
    <line x1="616.67" y1="163.13" x2="661.11" y2="141.92"/>
    <line x1="727.78" y1="134.85" x2="761.11" y2="163.13"/>
    <line x1="738.89" y1="467.17" x2="772.22" y2="438.89"/>
    <line x1="883.33" y1="750.00" x2="916.67" y2="721.72"/>
    <line x1="327.78" y1="467.17" x2="338.89" y2="502.53"/>
    <line x1="561.11" y1="156.06" x2="616.67" y2="163.13"/>
    <line x1="738.89" y1="467.17" x2="750.00" y2="502.53"/>
    <line x1="461.11" y1="269.19" x2="516.67" y2="255.05"/>
    <line x1="527.78" y1="537.88" x2="550.00" y2="502.53"/>
    <line x1="816.67" y1="191.41" x2="838.89" y2="156.06"/>
    <line x1="683.33" y1="445.96" x2="738.89" y2="467.17"/>
    <line x1="172.22" y1="283.33" x2="238.89" y2="283.33"/>
    <line x1="183.33" y1="403.54" x2="194.44" y2="445.96"/>
    <line x1="438.89" y1="665.15" x2="505.56" y2="658.08"/>
    <line x1="661.11" y1="141.92" x2="727.78" y2="134.85"/>
    <line x1="850.00" y1="445.96" x2="861.11" y2="403.54"/>
    <line x1="1016.67" y1="438.89" x2="1027.78" y2="396.46"/>
    <line x1="150.00" y1="240.91" x2="172.22" y2="283.33"/>
    <line x1="727.78" y1="134.85" x2="794.44" y2="120.71"/>
    <line x1="1127.78" y1="410.61" x2="1150.00" y2="453.03"/>
    <line x1="761.11" y1="163.13" x2="816.67" y2="191.41"/>
    <line x1="838.89" y1="156.06" x2="894.44" y2="127.78"/>
    <line x1="905.56" y1="184.34" x2="938.89" y2="226.77"/>
    <line x1="916.67" y1="721.72" x2="950.00" y2="679.29"/>
    <line x1="994.44" y1="509.60" x2="1061.11" y2="488.38"/>
    <line x1="72.22" y1="240.91" x2="150.00" y2="240.91"/>
    <line x1="638.89" y1="559.09" x2="716.67" y2="559.09"/>
    <line x1="650.00" y1="92.42" x2="661.11" y2="141.92"/>
    <line x1="772.22" y1="438.89" x2="850.00" y2="445.96"/>
    <line x1="1038.89" y1="50.00" x2="1094.44" y2="85.35"/>
    <line x1="294.44" y1="615.66" x2="361.11" y2="643.94"/>
    <line x1="838.89" y1="156.06" x2="905.56" y2="184.34"/>
    <line x1="127.78" y1="488.38" x2="205.56" y2="502.53"/>
    <line x1="272.22" y1="163.13" x2="350.00" y2="177.27"/>
    <line x1="450.00" y1="410.61" x2="472.22" y2="460.10"/>
    <line x1="350.00" y1="177.27" x2="383.33" y2="226.77"/>
    <line x1="494.44" y1="50.00" x2="572.22" y2="71.21"/>
    <line x1="505.56" y1="658.08" x2="538.89" y2="608.59"/>
    <line x1="50.00" y1="608.59" x2="116.67" y2="573.23"/>
    <line x1="83.33" y1="502.53" x2="138.89" y2="544.95"/>
    <line x1="316.67" y1="262.12" x2="383.33" y2="226.77"/>
    <line x1="483.33" y1="467.17" x2="550.00" y2="502.53"/>
    <line x1="805.56" y1="247.98" x2="872.22" y2="283.33"/>
    <line x1="194.44" y1="445.96" x2="205.56" y2="502.53"/>
    <line x1="805.56" y1="247.98" x2="816.67" y2="191.41"/>
    <line x1="683.33" y1="445.96" x2="705.56" y2="389.39"/>
    <line x1="1072.22" y1="566.16" x2="1138.89" y2="523.74"/>
    <line x1="716.67" y1="559.09" x2="750.00" y2="502.53"/>
    <line x1="1061.11" y1="488.38" x2="1138.89" y2="523.74"/>
    <line x1="338.89" y1="502.53" x2="427.78" y2="530.81"/>
    <line x1="538.89" y1="608.59" x2="627.78" y2="580.30"/>
    <line x1="372.22" y1="460.10" x2="472.22" y2="460.10"/>
    <line x1="394.44" y1="665.15" x2="405.56" y2="728.79"/>
    <line x1="1050.00" y1="460.10" x2="1150.00" y2="453.03"/>
    <line x1="383.33" y1="226.77" x2="461.11" y2="269.19"/>
    <line x1="94.44" y1="368.18" x2="183.33" y2="403.54"/>
    <line x1="694.44" y1="679.29" x2="783.33" y2="643.94"/>
    <line x1="527.78" y1="537.88" x2="538.89" y2="608.59"/>
    <line x1="716.67" y1="559.09" x2="827.78" y2="573.23"/>
    <line x1="850.00" y1="445.96" x2="961.11" y2="460.10"/>
    <line x1="783.33" y1="643.94" x2="827.78" y2="573.23"/>
    <line x1="105.56" y1="78.28" x2="227.78" y2="64.14"/>
    <line x1="205.56" y1="502.53" x2="338.89" y2="502.53"/>
    <line x1="516.67" y1="255.05" x2="605.56" y2="318.69"/>
    <line x1="983.33" y1="219.70" x2="1116.67" y2="212.63"/>
    <line x1="183.33" y1="403.54" x2="216.67" y2="318.69"/>
    <line x1="950.00" y1="679.29" x2="1083.33" y2="707.58"/>
    <line x1="583.33" y1="742.93" x2="694.44" y2="679.29"/>
    <line x1="227.78" y1="64.14" x2="272.22" y2="163.13"/>
    <line x1="516.67" y1="255.05" x2="561.11" y2="156.06"/>
    <line x1="783.33" y1="643.94" x2="950.00" y2="679.29"/>
    <line x1="894.44" y1="127.78" x2="1038.89" y2="50.00"/>
  </g>

  <!-- Points -->
  <g id="points">
    <circle cx="50.00" cy="608.59" r="4" fill="#dc2626" stroke="#fff" stroke-width="1.5"/>
    <circle cx="61.11" cy="92.42" r="4" fill="#dc2626" stroke="#fff" stroke-width="1.5"/>
    <circle cx="72.22" cy="240.91" r="4" fill="#dc2626" stroke="#fff" stroke-width="1.5"/>
    <circle cx="83.33" cy="502.53" r="4" fill="#dc2626" stroke="#fff" stroke-width="1.5"/>
    <circle cx="94.44" cy="368.18" r="4" fill="#dc2626" stroke="#fff" stroke-width="1.5"/>
    <circle cx="105.56" cy="78.28" r="4" fill="#dc2626" stroke="#fff" stroke-width="1.5"/>
    <circle cx="116.67" cy="573.23" r="4" fill="#dc2626" stroke="#fff" stroke-width="1.5"/>
    <circle cx="127.78" cy="488.38" r="4" fill="#dc2626" stroke="#fff" stroke-width="1.5"/>
    <circle cx="138.89" cy="544.95" r="4" fill="#dc2626" stroke="#fff" stroke-width="1.5"/>
    <circle cx="150.00" cy="240.91" r="4" fill="#dc2626" stroke="#fff" stroke-width="1.5"/>
    <circle cx="161.11" cy="290.40" r="4" fill="#dc2626" stroke="#fff" stroke-width="1.5"/>
    <circle cx="172.22" cy="283.33" r="4" fill="#dc2626" stroke="#fff" stroke-width="1.5"/>
    <circle cx="183.33" cy="403.54" r="4" fill="#dc2626" stroke="#fff" stroke-width="1.5"/>
    <circle cx="194.44" cy="445.96" r="4" fill="#dc2626" stroke="#fff" stroke-width="1.5"/>
    <circle cx="205.56" cy="502.53" r="4" fill="#dc2626" stroke="#fff" stroke-width="1.5"/>
    <circle cx="216.67" cy="318.69" r="4" fill="#dc2626" stroke="#fff" stroke-width="1.5"/>
    <circle cx="227.78" cy="64.14" r="4" fill="#dc2626" stroke="#fff" stroke-width="1.5"/>
    <circle cx="238.89" cy="283.33" r="4" fill="#dc2626" stroke="#fff" stroke-width="1.5"/>
    <circle cx="250.00" cy="297.47" r="4" fill="#dc2626" stroke="#fff" stroke-width="1.5"/>
    <circle cx="261.11" cy="594.44" r="4" fill="#dc2626" stroke="#fff" stroke-width="1.5"/>
    <circle cx="272.22" cy="163.13" r="4" fill="#dc2626" stroke="#fff" stroke-width="1.5"/>
    <circle cx="283.33" cy="262.12" r="4" fill="#dc2626" stroke="#fff" stroke-width="1.5"/>
    <circle cx="294.44" cy="615.66" r="4" fill="#dc2626" stroke="#fff" stroke-width="1.5"/>
    <circle cx="305.56" cy="601.52" r="4" fill="#dc2626" stroke="#fff" stroke-width="1.5"/>
    <circle cx="316.67" cy="262.12" r="4" fill="#dc2626" stroke="#fff" stroke-width="1.5"/>
    <circle cx="327.78" cy="467.17" r="4" fill="#dc2626" stroke="#fff" stroke-width="1.5"/>
    <circle cx="338.89" cy="502.53" r="4" fill="#dc2626" stroke="#fff" stroke-width="1.5"/>
    <circle cx="350.00" cy="177.27" r="4" fill="#dc2626" stroke="#fff" stroke-width="1.5"/>
    <circle cx="361.11" cy="643.94" r="4" fill="#dc2626" stroke="#fff" stroke-width="1.5"/>
    <circle cx="372.22" cy="460.10" r="4" fill="#dc2626" stroke="#fff" stroke-width="1.5"/>
    <circle cx="383.33" cy="226.77" r="4" fill="#dc2626" stroke="#fff" stroke-width="1.5"/>
    <circle cx="394.44" cy="665.15" r="4" fill="#dc2626" stroke="#fff" stroke-width="1.5"/>
    <circle cx="405.56" cy="728.79" r="4" fill="#dc2626" stroke="#fff" stroke-width="1.5"/>
    <circle cx="416.67" cy="290.40" r="4" fill="#dc2626" stroke="#fff" stroke-width="1.5"/>
    <circle cx="427.78" cy="530.81" r="4" fill="#dc2626" stroke="#fff" stroke-width="1.5"/>
    <circle cx="438.89" cy="665.15" r="4" fill="#dc2626" stroke="#fff" stroke-width="1.5"/>
    <circle cx="450.00" cy="410.61" r="4" fill="#dc2626" stroke="#fff" stroke-width="1.5"/>
    <circle cx="461.11" cy="269.19" r="4" fill="#dc2626" stroke="#fff" stroke-width="1.5"/>
    <circle cx="472.22" cy="460.10" r="4" fill="#dc2626" stroke="#fff" stroke-width="1.5"/>
    <circle cx="483.33" cy="467.17" r="4" fill="#dc2626" stroke="#fff" stroke-width="1.5"/>
    <circle cx="494.44" cy="50.00" r="4" fill="#dc2626" stroke="#fff" stroke-width="1.5"/>
    <circle cx="505.56" cy="658.08" r="4" fill="#dc2626" stroke="#fff" stroke-width="1.5"/>
    <circle cx="516.67" cy="255.05" r="4" fill="#dc2626" stroke="#fff" stroke-width="1.5"/>
    <circle cx="527.78" cy="537.88" r="4" fill="#dc2626" stroke="#fff" stroke-width="1.5"/>
    <circle cx="538.89" cy="608.59" r="4" fill="#dc2626" stroke="#fff" stroke-width="1.5"/>
    <circle cx="550.00" cy="502.53" r="4" fill="#dc2626" stroke="#fff" stroke-width="1.5"/>
    <circle cx="561.11" cy="156.06" r="4" fill="#dc2626" stroke="#fff" stroke-width="1.5"/>
    <circle cx="572.22" cy="71.21" r="4" fill="#dc2626" stroke="#fff" stroke-width="1.5"/>
    <circle cx="583.33" cy="742.93" r="4" fill="#dc2626" stroke="#fff" stroke-width="1.5"/>
    <circle cx="594.44" cy="92.42" r="4" fill="#dc2626" stroke="#fff" stroke-width="1.5"/>
    <circle cx="605.56" cy="318.69" r="4" fill="#dc2626" stroke="#fff" stroke-width="1.5"/>
    <circle cx="616.67" cy="163.13" r="4" fill="#dc2626" stroke="#fff" stroke-width="1.5"/>
    <circle cx="627.78" cy="580.30" r="4" fill="#dc2626" stroke="#fff" stroke-width="1.5"/>
    <circle cx="638.89" cy="559.09" r="4" fill="#dc2626" stroke="#fff" stroke-width="1.5"/>
    <circle cx="650.00" cy="92.42" r="4" fill="#dc2626" stroke="#fff" stroke-width="1.5"/>
    <circle cx="661.11" cy="141.92" r="4" fill="#dc2626" stroke="#fff" stroke-width="1.5"/>
    <circle cx="672.22" cy="71.21" r="4" fill="#dc2626" stroke="#fff" stroke-width="1.5"/>
    <circle cx="683.33" cy="445.96" r="4" fill="#dc2626" stroke="#fff" stroke-width="1.5"/>
    <circle cx="694.44" cy="679.29" r="4" fill="#dc2626" stroke="#fff" stroke-width="1.5"/>
    <circle cx="705.56" cy="389.39" r="4" fill="#dc2626" stroke="#fff" stroke-width="1.5"/>
    <circle cx="716.67" cy="559.09" r="4" fill="#dc2626" stroke="#fff" stroke-width="1.5"/>
    <circle cx="727.78" cy="134.85" r="4" fill="#dc2626" stroke="#fff" stroke-width="1.5"/>
    <circle cx="738.89" cy="467.17" r="4" fill="#dc2626" stroke="#fff" stroke-width="1.5"/>
    <circle cx="750.00" cy="502.53" r="4" fill="#dc2626" stroke="#fff" stroke-width="1.5"/>
    <circle cx="761.11" cy="163.13" r="4" fill="#dc2626" stroke="#fff" stroke-width="1.5"/>
    <circle cx="772.22" cy="438.89" r="4" fill="#dc2626" stroke="#fff" stroke-width="1.5"/>
    <circle cx="783.33" cy="643.94" r="4" fill="#dc2626" stroke="#fff" stroke-width="1.5"/>
    <circle cx="794.44" cy="120.71" r="4" fill="#dc2626" stroke="#fff" stroke-width="1.5"/>
    <circle cx="805.56" cy="247.98" r="4" fill="#dc2626" stroke="#fff" stroke-width="1.5"/>
    <circle cx="816.67" cy="191.41" r="4" fill="#dc2626" stroke="#fff" stroke-width="1.5"/>
    <circle cx="827.78" cy="573.23" r="4" fill="#dc2626" stroke="#fff" stroke-width="1.5"/>
    <circle cx="838.89" cy="156.06" r="4" fill="#dc2626" stroke="#fff" stroke-width="1.5"/>
    <circle cx="850.00" cy="445.96" r="4" fill="#dc2626" stroke="#fff" stroke-width="1.5"/>
    <circle cx="861.11" cy="403.54" r="4" fill="#dc2626" stroke="#fff" stroke-width="1.5"/>
    <circle cx="872.22" cy="283.33" r="4" fill="#dc2626" stroke="#fff" stroke-width="1.5"/>
    <circle cx="883.33" cy="750.00" r="4" fill="#dc2626" stroke="#fff" stroke-width="1.5"/>
    <circle cx="894.44" cy="127.78" r="4" fill="#dc2626" stroke="#fff" stroke-width="1.5"/>
    <circle cx="905.56" cy="184.34" r="4" fill="#dc2626" stroke="#fff" stroke-width="1.5"/>
    <circle cx="916.67" cy="721.72" r="4" fill="#dc2626" stroke="#fff" stroke-width="1.5"/>
    <circle cx="927.78" cy="728.79" r="4" fill="#dc2626" stroke="#fff" stroke-width="1.5"/>
    <circle cx="938.89" cy="226.77" r="4" fill="#dc2626" stroke="#fff" stroke-width="1.5"/>
    <circle cx="950.00" cy="679.29" r="4" fill="#dc2626" stroke="#fff" stroke-width="1.5"/>
    <circle cx="961.11" cy="460.10" r="4" fill="#dc2626" stroke="#fff" stroke-width="1.5"/>
    <circle cx="972.22" cy="431.82" r="4" fill="#dc2626" stroke="#fff" stroke-width="1.5"/>
    <circle cx="983.33" cy="219.70" r="4" fill="#dc2626" stroke="#fff" stroke-width="1.5"/>
    <circle cx="994.44" cy="509.60" r="4" fill="#dc2626" stroke="#fff" stroke-width="1.5"/>
    <circle cx="1005.56" cy="460.10" r="4" fill="#dc2626" stroke="#fff" stroke-width="1.5"/>
    <circle cx="1016.67" cy="438.89" r="4" fill="#dc2626" stroke="#fff" stroke-width="1.5"/>
    <circle cx="1027.78" cy="396.46" r="4" fill="#dc2626" stroke="#fff" stroke-width="1.5"/>
    <circle cx="1038.89" cy="50.00" r="4" fill="#dc2626" stroke="#fff" stroke-width="1.5"/>
    <circle cx="1050.00" cy="460.10" r="4" fill="#dc2626" stroke="#fff" stroke-width="1.5"/>
    <circle cx="1061.11" cy="488.38" r="4" fill="#dc2626" stroke="#fff" stroke-width="1.5"/>
    <circle cx="1072.22" cy="566.16" r="4" fill="#dc2626" stroke="#fff" stroke-width="1.5"/>
    <circle cx="1083.33" cy="707.58" r="4" fill="#dc2626" stroke="#fff" stroke-width="1.5"/>
    <circle cx="1094.44" cy="85.35" r="4" fill="#dc2626" stroke="#fff" stroke-width="1.5"/>
    <circle cx="1105.56" cy="85.35" r="4" fill="#dc2626" stroke="#fff" stroke-width="1.5"/>
    <circle cx="1116.67" cy="212.63" r="4" fill="#dc2626" stroke="#fff" stroke-width="1.5"/>
    <circle cx="1127.78" cy="410.61" r="4" fill="#dc2626" stroke="#fff" stroke-width="1.5"/>
    <circle cx="1138.89" cy="523.74" r="4" fill="#dc2626" stroke="#fff" stroke-width="1.5"/>
    <circle cx="1150.00" cy="453.03" r="4" fill="#dc2626" stroke="#fff" stroke-width="1.5"/>
  </g>

  <text x="600.0" y="30" text-anchor="middle" font-family="Arial" font-size="24" font-weight="bold" fill="#1f2937">
    MST vs All Edges Comparison
  </text>
  <text x="600.0" y="55" text-anchor="middle" font-family="Arial" font-size="14" fill="#6b7280">
    All Edges: 521 (gray) | MST Edges: 99 (blue)
  </text>
</svg>